<svg xmlns="http://www.w3.org/2000/svg" viewBox="0 0 80.0217 19"><defs><style>.cls-1{fill:#fff;}.cls-2{fill:#ff5943;}.cls-3{fill:#96f;}.cls-4{fill:#50a162;}.cls-5{fill:#f49a0b;}</style></defs><title>Asset 9</title><g id="Layer_2" data-name="Layer 2"><g id="CivicNet_Logo_Oriz._default_" data-name="CivicNet Logo Oriz.  (default)"><g id="CivicNet_Logo_TextReversed"><g id="text"><path class="cls-1" d="M5.5007,15.17285a.97383.97383,0,0,1-.126.42725c-.05152.05908-.25757.19971-1.064.22656-.14648.01074-.30224.01074-.4917.01026a4.62471,4.62471,0,0,1-1.40869-.126c-.19116-.03174-.334-.24463-.42578-.63721a6.571,6.571,0,0,1-.16626-1.62646V11.28906a6.59641,6.59641,0,0,1,.16724-1.62988c.09057-.38867.23339-.60156.45337-.64111A4.63761,4.63761,0,0,1,3.81906,8.8999c.18457.00489.34571-.00048.49756.01026.80054.02685,1.00684.167,1.05737.2251a.96178.96178,0,0,1,.126.42382l.17725,1.36719H7.26828l-.00683-.15576A8.86316,8.86316,0,0,0,7.1069,9.23487a2.49774,2.49774,0,0,0-.38378-.8545,1.63109,1.63109,0,0,0-.70533-.57617,3.87981,3.87981,0,0,0-.95752-.26758,9.00032,9.00032,0,0,0-1.31616-.07617,9.94716,9.94716,0,0,0-1.05859.04346,4.9646,4.9646,0,0,0-.8667.14453,3.31772,3.31772,0,0,0-.66626.272,1.762,1.762,0,0,0-.4895.4419,2.9445,2.9445,0,0,0-.34156.582,3.83233,3.83233,0,0,0-.189.76123,8.42292,8.42292,0,0,0-.10913.94971c-.0105.32128-.02124.6958-.02124,1.13525L.001,12.0044c-.001.13427-.002.26074.00122.37256C-.001,12.47754,0,12.59912.001,12.731l.00122.21533c0,.439.01074.814.02148,1.14014a8.38364,8.38364,0,0,0,.10816.94043,3.82253,3.82253,0,0,0,.19336.77441,2.96088,2.96088,0,0,0,.33789.57324,1.77637,1.77637,0,0,0,.49511.44532,3.34307,3.34307,0,0,0,.66773.2705,4.99647,4.99647,0,0,0,.85425.14209,9.91633,9.91633,0,0,0,1.064.04346,8.91371,8.91371,0,0,0,1.31714-.07617A3.86492,3.86492,0,0,0,6.02,16.93164a1.62257,1.62257,0,0,0,.69849-.56836,2.5059,2.5059,0,0,0,.38818-.86132,8.83062,8.83062,0,0,0,.15479-1.53565l.00683-.15576H5.67722Z"/><rect class="cls-1" x="9.42087" y="7.7124" width="1.89355" height="9.48535"/><polygon class="cls-1" points="19.08 7.712 17.079 14.939 14.948 7.757 13.134 7.757 16.101 17.035 18.051 17.035 21.042 7.712 19.08 7.712"/><rect class="cls-1" x="22.65012" y="7.7124" width="1.89355" height="9.32275"/><path class="cls-1" d="M32.23971,15.17285a.97358.97358,0,0,1-.126.42725c-.05151.05908-.25756.19971-1.064.22656-.14648.01074-.30225.01074-.4917.01026a4.62471,4.62471,0,0,1-1.40869-.126c-.19116-.03174-.334-.24463-.42578-.63721a6.571,6.571,0,0,1-.16626-1.62646V11.28906a6.59694,6.59694,0,0,1,.16723-1.62988c.09058-.38867.2334-.60156.45337-.64111a4.63776,4.63776,0,0,1,1.38013-.11817c.18457.00489.3457-.00048.49756.01026.80054.02685,1.00684.167,1.05737.2251a.96178.96178,0,0,1,.126.42382l.17725,1.36719h1.59106l-.00684-.15576a8.86349,8.86349,0,0,0-.15454-1.53564,2.49755,2.49755,0,0,0-.38379-.8545,1.631,1.631,0,0,0-.70532-.57617,3.87981,3.87981,0,0,0-.95752-.26758,9.00032,9.00032,0,0,0-1.31616-.07617,9.94716,9.94716,0,0,0-1.05859.04346,4.9646,4.9646,0,0,0-.8667.14453,3.31748,3.31748,0,0,0-.66626.272,1.76215,1.76215,0,0,0-.48951.4419,2.945,2.945,0,0,0-.34155.582,3.83164,3.83164,0,0,0-.189.76123,8.42292,8.42292,0,0,0-.10913.94971c-.0105.32128-.02124.6958-.02124,1.13525L26.74,12.0044c-.001.13427-.002.26074.00122.37256-.00318.10058-.0022.22216-.00122.354l.00122.21533c0,.439.01074.814.02148,1.14014a8.38615,8.38615,0,0,0,.10815.94043,3.82319,3.82319,0,0,0,.19336.77441,2.96189,2.96189,0,0,0,.33789.57324,1.77655,1.77655,0,0,0,.49512.44532,3.34282,3.34282,0,0,0,.66773.2705,4.99653,4.99653,0,0,0,.85424.14209,9.91653,9.91653,0,0,0,1.064.04346,8.91371,8.91371,0,0,0,1.31714-.07617,3.86492,3.86492,0,0,0,.95874-.26807,1.62248,1.62248,0,0,0,.69848-.56836,2.50571,2.50571,0,0,0,.38819-.86132,8.831,8.831,0,0,0,.15478-1.53565l.00684-.15576H32.41623Z"/><path class="cls-1" d="M64.59445,10.98487c-.01074-.2959-.03271-.59717-.06543-.895a4.39164,4.39164,0,0,0-.14306-.76758,3.89682,3.89682,0,0,0-.24024-.604,1.562,1.562,0,0,0-.38623-.5039,2.5058,2.5058,0,0,0-.52148-.3291,2.5398,2.5398,0,0,0-.689-.20508,5.58472,5.58472,0,0,0-.85742-.05957,4.66732,4.66732,0,0,0-1.77392.30762,1.71009,1.71009,0,0,0-.88477.75146l-.39648-.8042H57.282v6.26074h1.89356v-1.8999q0-.33105-.02442-.8667-.02417-.52515-.02392-.7373a2.90319,2.90319,0,0,1,.05322-.606,1.231,1.231,0,0,1,.18457-.43018.84071.84071,0,0,1,.36279-.29248,2.72973,2.72973,0,0,1,.67139-.18164,6.56258,6.56258,0,0,1,1.02539-.06836c.18652,0,.335.00293.4458.00782a1.19216,1.19216,0,0,1,.30322.05566.97832.97832,0,0,1,.22266.09326.43049.43049,0,0,1,.124.16309,1.038,1.038,0,0,1,.10254.28027c.02051.10352.04053.25977.0586.46484.01806.21.02881.41944.03174.62647q.0044.31641.00439.84131v5.61133h1.89355v-5.1587C64.61105,11.63135,64.6052,11.2793,64.59445,10.98487Z"/><path class="cls-1" d="M69.8176,12.6753h4.46875v-.14893c0-.52441,0-1.08057-.01074-1.42773-.02-.32227-.042-.688-.08692-1.04395a4.16456,4.16456,0,0,0-.17676-.84766,2.49825,2.49825,0,0,0-.30664-.63525,1.5833,1.5833,0,0,0-.48633-.48242,3.01356,3.01356,0,0,0-.65478-.271,4.97151,4.97151,0,0,0-.86572-.165c-.31641-.022-.67285-.03271-1.09033-.03271a11.47472,11.47472,0,0,0-1.50245.07568,2.847,2.847,0,0,0-1.07763.33008,2.491,2.491,0,0,0-.68116.56836,2.38471,2.38471,0,0,0-.38134.99072,7.63761,7.63761,0,0,0-.15284,1.291c-.02148.42676-.03173,1.0083-.03173,1.77783,0,.54639.01025.96387.021,1.2749.00977.26807.03711.59375.08741,1.02881a2.62665,2.62665,0,0,0,.25195.89453,3.44712,3.44712,0,0,0,.45556.63184,1.72168,1.72168,0,0,0,.76612.50488,8.32223,8.32223,0,0,0,1.04492.23828,9.13536,9.13536,0,0,0,1.43555.09815c.42334,0,.77783-.02149,1.06982-.043a3.50261,3.50261,0,0,0,.813-.15528,1.54031,1.54031,0,0,0,.61523-.32421,1.58917,1.58917,0,0,0,.417-.53321,2.753,2.753,0,0,0,.22607-.74365,11.20971,11.20971,0,0,0,.08789-1.18213l.0044-.15332H72.54953l-.05859.52393q-.01465.24975-.03076.374a1.577,1.577,0,0,1-.07032.29932.34459.34459,0,0,1-.11718.187,1.74405,1.74405,0,0,1-.3086.167,1.45588,1.45588,0,0,1-.48926.11377,5.44378,5.44378,0,0,1-.7705.0415,4.60239,4.60239,0,0,1-1.60108-.1709.61517.61517,0,0,1-.37793-.59179c-.03125-.92578-.05273-1.8042-.064-2.60645l.01074-1.30664c.00439-.09326.00732-.1792.00977-.25488.00293-.09326.00488-.1709.01123-.24268,0-.07959.00634-.18359.01367-.312l.02-.24072a1.98177,1.98177,0,0,1,.04931-.32471,2.81573,2.81573,0,0,1,.0918-.33447A.51082.51082,0,0,1,69.01,9.27442a.37277.37277,0,0,1,.18018-.10889,4.58533,4.58533,0,0,1,1.40771-.1167,4.01527,4.01527,0,0,1,1.37305.14746.571.571,0,0,1,.33887.54639c.04394.60351.07128,1.18408.08251,1.771H69.8176Z"/><path class="cls-1" d="M80.0217,9.47608V7.82422H78.38547V5.9253H76.49973V7.96045h1.02783V9.33838H76.49973v5.75244a4.69987,4.69987,0,0,0,.07568.92383,1.93241,1.93241,0,0,0,.29.68994,1.25007,1.25007,0,0,0,.65478.47754,3.23285,3.23285,0,0,0,1.02393.13916,8.02416,8.02416,0,0,0,1.28857-.11719l.124-.021V15.74463l-.16016.01221c-.42627.03271-.76611.04931-1.00928.04931-.27246,0-.30859-.1123-.32421-.16064a4.43306,4.43306,0,0,1-.07764-1.106V9.47608Z"/></g><g id="simbol"><path class="cls-2" d="M43.1292,2.35776c-.49027-.08377-.97683-.178-1.46167-.27707l-.72461-.156a2.96455,2.96455,0,0,1-.70543-.21015L37.47031.72034l.49279-.3461-.08879,10.28783-.26453-.359,1.00753.29866.5057.14268c.164.0631.32347.14185.48542.212.64616.28621,1.28907.58348,1.92719.8971-.70525-.08454-1.40572-.18546-2.10292-.29745-.17389-.02943-.35031-.05023-.52213-.08669l-.50182-.15594-1.00753-.29865a.37139.37139,0,0,1-.26461-.35913L37.22541.36779A.37.37,0,0,1,37.59749,0a.37562.37562,0,0,1,.1208.02162l2.76771.9926a2.96792,2.96792,0,0,1,.6783.2866l.65912.34062C42.26105,1.87351,42.697,2.11043,43.1292,2.35776Z"/><polyline class="cls-2" points="42.422 3.071 39.171 2.199 39.078 9.753 43.817 11.851"/><path class="cls-3" d="M39.59217,12.01848c-.00284.41747-.0157.83209-.04712,1.24142a4.40186,4.40186,0,0,1-.25258,1.18286l-.65457,2.32312-.25643-.45858,2.57.71564-.38824.12811,1.62359-2.07541.4059-.51884c.07193-.0831.12737-.17923.19791-.26343.079-.07753.1698-.14565.25412-.21893.34136-.28991.6919-.57255,1.05556-.84483-.17754.41954-.3682.82869-.568,1.23058-.051.09967-.09543.2045-.15178.29993-.06476.08876-.14462.16557-.208.25543l-.40589.51885L41.143,17.6098a.36815.36815,0,0,1-.3884.12817l-2.57-.71566a.37126.37126,0,0,1-.25709-.45656l.0006-.00215.65458-2.32312a4.39715,4.39715,0,0,1,.402-1.14028C39.17148,12.73516,39.37682,12.37539,39.59217,12.01848Z"/><polyline class="cls-3" points="40.334 12.615 39.874 15.616 40.525 15.797 42.953 13.115"/><path class="cls-4" d="M50.36085,15.96177,48.5424,14.05146l-.068.1158,1.74547,2.30039c-.03007.10656-.05889.21331-.07984.3213-.02936.197-.04668.39587-.08078.59213l-.13283.868-2.07325.00791-1.7171-7.2756-.89233-3.781-.218-.94643-.33646-.9182c-.22691-.61148-.44958-1.224-.69674-1.83066.05025.65368.125,1.30148.19556,1.9503l.10972.9723.22816.944.8923,3.781L47.203,18.71465A.3697.3697,0,0,0,47.56333,19l2.68108-.01024a.36975.36975,0,0,0,.36324-.3146l.18077-1.18124c.02617-.19746.06913-.39236.1-.58911.02231-.1981.01843-.40024.02894-.60015.03119-.80131.0507-1.60446.04884-2.41091C50.74909,14.58071,50.55077,15.27062,50.36085,15.96177Z"/><path class="cls-5" d="M55.78313,2.69831l-5.0944.30763a.371.371,0,0,0-.27508.15049l-.92824,1.26885c-.30519.42609-.626.84052-.9273,1.26951-.51909.91968-1.06154,1.82209-1.56028,2.75684.73891-.757,1.43409-1.54644,2.15265-2.31852.31755-.41691.61551-.84835.92913-1.26816l.35541-.4858-.14081,4.73573-2.90691.776,2.98291-.38941,1.93316,2.85985c-.13478.01216-.26929.03133-.40382.04966l-.929.13069c-.61917.09156-1.23816.18961-1.85679.29857.62433.06862,1.24831.12631,1.87207.17757l.93544.07019c.15588.011.31191.02666.46746.02687l.46578-.02485.00853-.00036a.36933.36933,0,0,0,.33208-.26105l2.96262-9.65057a.38025.38025,0,0,0,.01576-.13169A.36965.36965,0,0,0,55.78313,2.69831Zm-1.11374,2.813L51.69351,3.68855,55.29573,3.471ZM50.94391,3.80861l3.57578,2.19028-.2662.86715L50.79358,8.86951Zm3.09646,3.75172L52.67,12.02405,50.88723,9.38634Z"/></g></g></g></g></svg>
